<?xml version="1.0" encoding="UTF-8" standalone="no"?>
<!-- Created with Inkscape (http://www.inkscape.org/) -->

<svg
   xmlns:dc="http://purl.org/dc/elements/1.1/"
   xmlns:cc="http://creativecommons.org/ns#"
   xmlns:rdf="http://www.w3.org/1999/02/22-rdf-syntax-ns#"
   xmlns:svg="http://www.w3.org/2000/svg"
   xmlns="http://www.w3.org/2000/svg"
   xmlns:sodipodi="http://sodipodi.sourceforge.net/DTD/sodipodi-0.dtd"
   xmlns:inkscape="http://www.inkscape.org/namespaces/inkscape"
   id="svg2"
   version="1.1"
   inkscape:version="0.91 r13725"
   xml:space="preserve"
   width="1250"
   height="1250"
   viewBox="0 0 1250 1250"
   sodipodi:docname="logo2.svg"><metadata
     id="metadata8"><rdf:RDF><cc:Work
         rdf:about=""><dc:format>image/svg+xml</dc:format><dc:type
           rdf:resource="http://purl.org/dc/dcmitype/StillImage" /><dc:title></dc:title></cc:Work></rdf:RDF></metadata><defs
     id="defs6" /><sodipodi:namedview
     pagecolor="#ffffff"
     bordercolor="#666666"
     borderopacity="1"
     objecttolerance="10"
     gridtolerance="10"
     guidetolerance="10"
     inkscape:pageopacity="0"
     inkscape:pageshadow="2"
     inkscape:window-width="1440"
     inkscape:window-height="844"
     id="namedview4"
     showgrid="false"
     inkscape:zoom="0.53400704"
     inkscape:cx="848.69299"
     inkscape:cy="518.86564"
     inkscape:window-x="0"
     inkscape:window-y="0"
     inkscape:window-maximized="1"
     inkscape:current-layer="g12" /><g
     id="g10"
     inkscape:groupmode="layer"
     inkscape:label="ink_ext_XXXXXX"
     transform="matrix(1.25,0,0,-1.25,0,1250)"><g
       id="g12"
       transform="scale(0.1,0.1)"><path
         d="m 5605.9,7099.4 c 0,0 92.5,-0.6 222.9,-5.9 -131.2,7.4 -222.9,5.9 -222.9,5.9 z m -2017.8,-4556.3 0,-1.4 c 0.3,0 0.4,0.2 0.7,0.2 -0.3,0.4 -0.5,0.8 -0.7,1.2"
         style="fill:#231f20;fill-opacity:1;fill-rule:nonzero;stroke:none"
         id="path14"
         inkscape:connector-curvature="0" /><path
         d="m 7720.5,3607.8 -60.6,203.6 66.9,101.9 178.2,-41.4 12.8,19.1 c -48.9,104.1 -93.3,259.8 0,353.3 l 178.2,41.4 c -102.8,333.7 64.3,1099.9 537.9,795.6 104.6,-67.2 105,-179.7 105,-181.4 C 8654,4486.7 8388.2,3195.8 7720.5,3607.8 Z m -707.9,1359.1 c -103,-25.8 -171.7,-162.3 -171.7,-162.3 -76.1,-301.6 -169.1,-486.8 -181.5,-814.8 0,0 -49,-79.3 -86,-117.8 -50.1,-52.2 -105,12.8 -105,12.8 -49.7,74.6 -95.4,191.2 -79.6,283.3 l -92.2,31.8 c -138.4,-88.7 -236.1,-167.6 -413.8,-146.4 l -25.4,-25.6 c -412.9,32.5 -550.5919,-195.9865 -516.5798,-669.408 -111.0408,-461.7364 -83.3126,-192.9614 -228.1811,-501.9636 7,-70.8 -125.0391,-162.0284 -15.9391,-187.5284 l 60.5,22.2 c -17.1,247.6 205.7,303.8 264.1,480.8 -33.9,374.9 -62.1,517.9 89.1,700 107.8,81.4 222.9,125.6 353.3,85.9 233.6,-70.7 229.2,-194.1 229.2,-194.1 25.5,-179.6 61.7,-233.8 73.1,-541 -185.7,-491 -220.6,-486.6 -356.4,-757.5 0,0 -38.6,-91.9 -171.9,-117.7 -237.2,-46.2 -43.2,34.5 -378.7,-16 -495,-74.5 -461.3,860.1 -238.7,1101.4 l -136.8,-3.4 c -54,-61.5 -103.2,-162.3 -108.2,-162.3 l -41.5,66.8 92.4,292.8 c 22.4,16.3 417,277.4 417,289.7 -200.2,-36.8 -480.1,-29.9 -646.2,114.6 -40,34.8 -78.7,71.9 -136.9,25.4 l 54.2,-140 c -134.8,-25.5 -272.9,-7 -407.4,9.6 -97.6,88.6 -229.3,161.1 -362.8,111.3 l -22.3,-47.7 c 95.9,-165.7 367.1,-315.9 394.6,-474.2 l -95.5,-165.5 c -151.3,-9.4 -235.2,12.2 -366.1,-89.1 60.8,-23.1 383,-142.4 394.8,-187.9 133.7,-512.5 -162.7,-293.2 -461.5,-509.2 l 0,-20.8 c 0.2,-0.4 0.4,-0.8 0.7,-1.2 l 0.1,0 c 238.6,50.2 475.1,-36.1 708.8,-73.4 77.4,-90.1 58.4,-322.4 25.6,-423.3 -147.5,-200.9 -564.2,-111.3 -735.2,9.6 -247.2,323.4 -88.6,331.6 -121,620.5 -93.3,834.5 -255.4,1592 -401,2441.2 -47.1,274.9 -846.8,906.5 -1037.6,1104.5 -248.1,257.1 -393.1,706.6 -741.6,945.1 -36.5,37.9 -46,105.7 -28.6,203.7 18.1,60.3 54,85.8 105,92.4 519.9,66.5 1158.4,-306.3 967.5,-923.1 -43.5,-141.4 315,27.1 458.5,3.2 306.1,-208.8 250,-494.2 432.7,-639.7 l 98.7,-19.1 22.2,22.3 c -48,831.4 839.4,783 1397.3,751.1 11.5,2.9 71.7,50.4 38.2,60.6 l -327.9,203.5 57.4,63.7 197.2,22.3 C 6199.2,6568.9 3983.9,4841.4 4024,4690 c 591,431.6 1429.6,316.9 2059.3,12.8 l 28.7,25.3 c -299.9,421.7 -929.8,282.4 -1028.1,999.5 37,180.8 370,671.9 518.9,789.3 803.3,139.5 1283.8,-256.5 1537.3,-973.9 l 57.1,-31.8 c 317.2,579.6 -404.8,1054.6 -855.2,1261.5 5.8,-0.8 11.9,-1.7 18,-2.7 263.3,-43.3 383.3,-146.7 573.3,-277 190,-130.3 265.4,-275.6 298.4,-349.7 7.7,-17.3 14,-31.2 19.2,-42.4 121.4,-412 197.5,-869.6 385.5,-1185 -222.6,115.3 -385.9,110.4 -623.8,51 z m -81.5,-2326.7 c -148.7,-25.6 -249.5,-105.6 -359.7,-79.6 -246.6,378.5 -164.2,193.7 -267.3,674.8 l -38.2,63.6 -54.1,28.6 c 25.5,89.5 38.4,181.8 51,273.8 l 38.1,-9.6 c 82,-123.4 137.7,-572.9 194.2,-751.1 l 41.4,-3.1 60.4,92.2 c -65.9,439.5 49.6,498.5 455.2,652.5 l -3.2,44.6 c -271.4,326.9 -141.7,1128.5 -86,1177.6 264.1,162.2 630.2,196.9 668.4,-82.8 -11.4,-498.5 -60.1,-1971.4 -700.2,-2081.5 z m 1854.5,2339.6 c -35.1,156.4 -280.6,252.5 -447.7,219.2 -164.4,-52.5 -334.1,-274.2 -394.6,-426.5 -10.8,-23 -36.5,15.8 -41.5,22.2 -122.2,158.3 -275.4,364.5 -321.4,563.4 -87.9,380.9 -179,697.7 -372.4,1037.6 -18.8,32.2 -47.8,71.4 -85.3,114.5 -0.6,0.8 -1.2,1.5 -1.8,2.1 C 7103,6530.8 6835,6895 6580,6995 c -163.4,64.1 -517.2,88.9 -750.4,98.5 l -0.8,0 c -130.4,5.3 -222.9,5.9 -222.9,5.9 0,0 -0.1,0.1 -0.4,0.1 -13.9,6.5 -384.4,177.4 -844.2,275.5 -385.64,26.28 -591.3,-31.64 -823.1,-241.2 -228.2,-250.47 -654.6,-434.3 -893.1,-359.3 -502.3,287.6 -1321.7,1684.1 -1830.2,525.1 -10.8,-100 22.7,-194.1 39.4,-215.9 C 2618.9,5312.2 2710.8,5784 2986.5,5114.4 c 278.9,-676.8 321,-1619.1 362.7,-2271.1 27.1,-425.4 -8.9,-669.8 96.6,-760.5 619.7,-532.4 1354.1,-179 919.7,1009 l 35.4,305.8 82.7,105 89.1,19.1 C 4714.6,2733.2 4888,2265.8 5072.5,2255 c 1159,-20 600.1,271.2 1005.7,378.8 425.1,-278.6 890.6,-91.6 1162.4,89.4 189.9,208.1 228.6,444.3 318.2,692.1 375.1,47.4 622.7,-58 887.9,305.4 82.5,201.6 364.7,827.6 338.9,1259.1"
         style="fill:#231f20;fill-opacity:1;fill-rule:nonzero;stroke:none"
         id="path16"
         inkscape:connector-curvature="0"
         sodipodi:nodetypes="cccccccccccccccccccccccccccccccccccccccccccccccccccccccccccccccccccccccccccccccscccccccccccccccccccccccccccccccccccccccccccccccccc" /><path
         d="m 5031.01,2532.42 c 0,-81.97 73.15,-139.61 155.1,-139.61 132.97,0 208.3,24.4 336.74,66.51 -26.54,59.78 -88.59,84.14 -88.59,150.62 0,168.42 228.2,197.21 228.2,365.57 0,117.44 -135.12,139.61 -157.34,254.78 -19.89,101.92 6.66,168.4 -35.39,263.67 -15.53,-31.05 -35.47,-50.97 -35.47,-88.63 0,-108.55 0,-168.36 0,-276.91 0,-51.02 -39.85,-70.92 -70.92,-108.63 -57.59,-68.66 -84.16,-115.16 -128.45,-192.76 -35.48,-64.22 -33.24,-126.23 -97.49,-163.91 -35.48,-19.98 -64.28,0 -106.39,0 -2.17,-50.95 0,-79.76 0,-130.7"
         style="fill:#231f20;fill-opacity:1;fill-rule:evenodd;stroke:none"
         id="path24"
         inkscape:connector-curvature="0" /><path
         d="m 3882.02,2108.73 -19.1,6.33 c -50.93,22.3 -114.57,19.12 -168.68,15.92 -15.91,9.57 -15.91,35 -6.38,47.73 50.96,47.74 114.61,73.2 187.77,63.63 108.24,-25.45 219.61,-44.53 324.69,-85.86 28.6,-19.12 41.35,-54.14 41.35,-89.16 6.39,-15.89 -6.38,-25.43 -12.75,-38.18 -92.28,79.59 -232.29,47.75 -346.9,79.59"
         style="fill:#231f20;fill-opacity:1;fill-rule:nonzero;stroke:none"
         id="path26"
         inkscape:connector-curvature="0" /><path
         d="m 5527.5,3260.86 9.54,410.53 c 53.86,184.59 433.82,211.11 496.5,70.04 6.55,-14.71 17.29,-55.9 -9.57,-66.86 l -324.6,-22.23 c -51.23,-99.35 -65.2,-250.91 -25.44,-356.48 l 44.55,35 0,159.16 c 56.61,39.37 141,73.09 206.87,60.45 89.67,-17.21 95.48,-171.86 95.48,-171.86 l -9.54,-120.93 c -73.5,-75.1 -200.55,-92.33 -200.55,-92.33 -212.29,30.43 -202.02,42.95 -283.24,95.51"
         style="fill:#231f20;fill-opacity:1;fill-rule:nonzero;stroke:none"
         id="path32"
         inkscape:connector-curvature="0" /><path
         d="m 7074.33,4237.95 c -6.27,135.53 -7.06,279.84 19.08,413.73 179.12,138.52 268.76,80.62 404.2,85.94 101.29,1.34 60.46,-114.59 60.46,-114.59 -115.24,12.38 -251.94,-43.19 -356.43,-82.72 l -28.65,-187.81 44.55,-89.08 34.99,140 c 0,0 63.89,93.16 162.35,92.3 110.5,-0.92 108.24,-111.38 108.24,-111.38 0,0 -8.14,-137.52 -57.32,-184.59 -87.4,-26.12 -194.16,-35.02 -194.16,-35.02 -114.07,7.83 -179.85,32.24 -197.31,73.22"
         style="fill:#231f20;fill-opacity:1;fill-rule:nonzero;stroke:none"
         id="path34"
         inkscape:connector-curvature="0" /><path
         d="m 8185.08,4623.03 c 15.91,92.3 66.85,168.69 101.83,254.63 22.3,25.43 50.92,47.75 85.94,44.59 109.3,-32.04 173.83,-47.29 253.37,-63.19 50.92,-57.32 -11.46,-130.97 -33.76,-185.11 -50.92,-12.72 -89.08,-82.72 -152.75,-41.37 -3.22,31.79 31.83,66.81 -3.22,89.1 3.22,28.69 38.2,54.14 9.57,79.57 -12.72,12.75 -31.86,12.75 -44.53,0 -35.07,-63.63 -117.76,-155.92 -47.73,-235.53 57.24,-31.81 136.83,-47.71 203.64,-22.24 -3.18,-28.68 -19.08,-57.31 -41.38,-73.21 -66.81,-47.73 -152.75,-9.57 -213.24,28.64 -47.74,31.83 -92.26,73.2 -117.74,124.12"
         style="fill:#231f20;fill-opacity:1;fill-rule:nonzero;stroke:none"
         id="path36"
         inkscape:connector-curvature="0" /></g></g></svg>